# Blender 4.3.1
# www.blender.org
o Collider
v -7.500000 0.000000 0.250000
v -7.500000 15.000000 0.250000
v -7.500000 0.000000 -0.250000
v -7.500000 15.000000 -0.250000
v 7.500000 0.000000 0.250000
v 7.500000 15.000000 0.250000
v 7.500000 0.000000 -0.250000
v 7.500000 15.000000 -0.250000
v -7.500000 1.875000 0.250000
v -7.500000 1.875000 -0.250000
v 7.500000 1.875000 -0.250000
v 7.500000 1.875000 0.250000
v 1.222243 0.000000 -0.250000
v -1.222243 0.000000 -0.250000
v -0.575000 15.000000 -0.250000
v 0.575000 15.000000 -0.250000
v -1.222243 0.000000 0.250000
v 1.222243 0.000000 0.250000
v 0.575000 15.000000 0.250000
v -0.575000 15.000000 0.250000
v 1.222243 3.244559 0.250000
v -1.222243 3.244559 0.250000
v -1.222243 3.244559 -0.250000
v 1.222243 3.244559 -0.250000
vn -1.0000 -0.0000 -0.0000
vn -0.0000 -0.0000 -1.0000
vn 1.0000 -0.0000 -0.0000
vn -0.0000 -0.0000 1.0000
vn -0.0000 -1.0000 -0.0000
vn -0.0000 1.0000 -0.0000
vt 0.406250 0.000000
vt 0.625000 0.000000
vt 0.625000 0.250000
vt 0.406250 0.250000
vt 0.406250 0.416667
vt 0.625000 0.416667
vt 0.625000 0.500000
vt 0.406250 0.500000
vt 0.625000 0.750000
vt 0.406250 0.750000
vt 0.406250 0.916667
vt 0.625000 0.916667
vt 0.625000 1.000000
vt 0.406250 1.000000
vt 0.291667 0.500000
vt 0.375000 0.500000
vt 0.375000 0.750000
vt 0.291667 0.750000
vt 0.791667 0.500000
vt 0.875000 0.500000
vt 0.875000 0.750000
vt 0.791667 0.750000
vt 0.375000 0.916667
vt 0.375000 1.000000
vt 0.375000 0.416667
vt 0.375000 0.000000
vt 0.375000 0.250000
vt 0.406250 0.333333
vt 0.375000 0.333333
vt 0.406250 0.833333
vt 0.375000 0.833333
vt 0.208333 0.500000
vt 0.708333 0.500000
vt 0.708333 0.750000
vt 0.125000 0.500000
vt 0.208333 0.750000
vt 0.125000 0.750000
vt 0.625000 0.833333
vt 0.625000 0.333333
s 0
f 9/1/1 2/2/1 4/3/1 10/4/1
f 24/5/2 16/6/2 8/7/2 11/8/2
f 11/8/3 8/7/3 6/9/3 12/10/3
f 22/11/4 20/12/4 2/13/4 9/14/4
f 13/15/5 7/16/5 5/17/5 18/18/5
f 15/19/6 4/20/6 2/21/6 20/22/6
f 17/23/4 22/11/4 9/14/4 1/24/4
f 7/16/3 11/8/3 12/10/3 5/17/3
f 13/25/2 24/5/2 11/8/2 7/16/2
f 1/26/1 9/1/1 10/4/1 3/27/1
f 3/27/2 10/4/2 23/28/2 14/29/2
f 21/30/5 22/11/5 23/28/5 24/5/5
f 5/17/4 12/10/4 21/30/4 18/31/4
f 22/11/3 17/23/3 14/32/3 23/28/3
f 8/7/6 16/33/6 19/34/6 6/9/6
f 16/33/6 15/19/6 20/22/6 19/34/6
f 3/35/5 14/32/5 17/36/5 1/37/5
f 21/30/1 24/5/1 13/15/1 18/31/1
f 12/10/4 6/9/4 19/38/4 21/30/4
f 21/30/4 19/38/4 20/12/4 22/11/4
f 10/4/2 4/3/2 15/39/2 23/28/2
f 23/28/2 15/39/2 16/6/2 24/5/2
